<?xml version="1.0" standalone="no"?>
<!DOCTYPE svg PUBLIC "-//W3C//DTD SVG 20010904//EN"
 "http://www.w3.org/TR/2001/REC-SVG-20010904/DTD/svg10.dtd">
<svg version="1.0" xmlns="http://www.w3.org/2000/svg"
 width="512.000000pt" height="512.000000pt" viewBox="0 0 512.000000 512.000000"
 preserveAspectRatio="xMidYMid meet">
<metadata>
Created by potrace 1.14, written by Peter Selinger 2001-2017
</metadata>
<g transform="translate(0.000000,512.000000) scale(0.100000,-0.100000)"
fill="#000000" stroke="none">
<path d="M2290 5105 c-626 -69 -1193 -357 -1627 -828 -269 -293 -484 -692
-583 -1087 -152 -604 -87 -1211 191 -1769 199 -403 501 -745 874 -992 855
-568 1975 -568 2830 0 204 135 418 329 570 516 272 334 469 769 539 1190 90
538 9 1077 -236 1566 -129 258 -266 450 -471 658 -542 550 -1325 830 -2087
746z m-470 -1484 c24 -12 44 -36 65 -76 28 -55 30 -65 28 -164 -1 -58 -8 -137
-15 -176 l-13 -70 -75 -6 c-87 -7 -124 -24 -167 -73 -87 -98 -60 -243 57 -315
31 -18 52 -21 170 -23 l135 -2 -105 -5 -104 -6 -14 -45 c-34 -117 -103 -395
-118 -480 -18 -102 -22 -277 -7 -324 5 -16 21 -38 34 -49 39 -28 90 -10 175
63 117 102 175 115 260 58 60 -41 85 -90 85 -161 0 -118 -76 -216 -228 -294
-98 -51 -158 -70 -253 -82 -157 -20 -306 24 -390 115 -85 92 -120 214 -120
419 0 186 29 354 106 615 20 69 37 132 38 140 1 12 -18 17 -89 22 -102 9 -194
30 -230 54 -91 59 -86 267 8 336 70 52 128 59 317 39 47 -5 86 -8 87 -7 1 1 9
64 17 141 23 198 33 239 69 287 45 59 105 88 181 88 41 0 73 -6 96 -19z"/>
</g>
</svg>
